<?xml version="1.0" encoding="utf-8"?>
<!-- Generator: Adobe Illustrator 20.1.0, SVG Export Plug-In . SVG Version: 6.00 Build 0)  -->
<svg version="1.1" id="Layer_1" xmlns="http://www.w3.org/2000/svg" xmlns:xlink="http://www.w3.org/1999/xlink" x="0px" y="0px"
	 viewBox="0 0 50 50" style="enable-background:new 0 0 50 50;" xml:space="preserve">
<style type="text/css">
	.st0{fill:none;}
</style>
<g>
	<path class="st0" d="M4.3,40.7c0.8,1.4,2.8,1.4,3.6,0l0,0c2-3.6,7.1-3.5,9,0c0.8,1.4,2.8,1.4,3.6,0l0,0c2-3.6,7.1-3.5,9,0
		c0.8,1.4,2.8,1.4,3.6,0l0,0c2-3.6,7.1-3.5,9,0c0.8,1.4,2.8,1.4,3.6,0l0,0c1-1.7,2.6-2.5,4.3-2.6v-4.3c-0.6,0.1-1.2,0.4-1.5,1l0,0
		c-2,3.6-7.1,3.5-9,0c-0.8-1.4-2.8-1.4-3.6,0l0,0c-2,3.6-7.1,3.5-9,0c-0.8-1.4-2.8-1.4-3.6,0l0,0c-2,3.6-7.1,3.5-9,0
		c-0.8-1.4-2.8-1.4-3.6,0l0,0c-2,3.6-7.1,3.5-9,0c-0.3-0.6-0.9-0.9-1.5-1v4.3C1.7,38.2,3.3,39.1,4.3,40.7z"/>
	<path d="M1.5,34.9c1.9,3.5,7,3.6,9,0l0,0c0.8-1.4,2.8-1.4,3.6,0c1.9,3.5,7,3.6,9,0l0,0c0.8-1.4,2.8-1.4,3.6,0c1.9,3.5,7,3.6,9,0
		l0,0c0.8-1.4,2.8-1.4,3.6,0c1.9,3.5,7,3.6,9,0l0,0c0.3-0.6,0.9-0.9,1.5-1v-3.1c-1.7,0.1-3.3,0.9-4.3,2.6l0,0
		c-0.8,1.4-2.8,1.4-3.6,0c-1.9-3.5-7-3.6-9,0l0,0c-0.8,1.4-2.8,1.4-3.6,0c-1.9-3.5-7-3.6-9,0l0,0c-0.8,1.4-2.8,1.4-3.6,0
		c-1.9-3.5-7-3.6-9,0l0,0c-0.8,1.4-2.8,1.4-3.6,0c-0.9-1.7-2.6-2.5-4.3-2.6v3.1C0.6,33.9,1.2,34.3,1.5,34.9z"/>
	<path d="M1.5,42.3c1.9,3.5,7,3.6,9,0l0,0c0.8-1.4,2.8-1.4,3.6,0c1.9,3.5,7,3.6,9,0l0,0c0.8-1.4,2.8-1.4,3.6,0c1.9,3.5,7,3.6,9,0
		l0,0c0.8-1.4,2.8-1.4,3.6,0c1.9,3.5,7,3.6,9,0l0,0c0.3-0.6,0.9-0.9,1.5-1v-3.1c-1.7,0.1-3.3,0.9-4.3,2.6l0,0
		c-0.8,1.4-2.8,1.4-3.6,0c-1.9-3.5-7-3.6-9,0l0,0c-0.8,1.4-2.8,1.4-3.6,0c-1.9-3.5-7-3.6-9,0l0,0c-0.8,1.4-2.8,1.4-3.6,0
		c-1.9-3.5-7-3.6-9,0l0,0c-0.8,1.4-2.8,1.4-3.6,0c-0.9-1.7-2.6-2.5-4.3-2.6v3.1C0.6,41.3,1.2,41.7,1.5,42.3z"/>
</g>
<path d="M38.8,5.1c-5.2,0-9.4,4.2-9.4,9.4H14.9c0-3.4,2.8-6.2,6.3-6.2c0.6,0,1.2-0.5,1.2-1.2V6.3c0-0.6-0.5-1.2-1.2-1.2
	c-5.2,0-9.4,4.2-9.4,9.4v15.6h3.1V27h14.5v3.1h3.1V14.5c0-3.4,2.8-6.2,6.2-6.2c0.6,0,1.2-0.5,1.2-1.2V6.3
	C39.9,5.6,39.4,5.1,38.8,5.1z M14.9,23.9v-6.2h14.5v6.2H14.9z"/>
</svg>
