<?xml version="1.0" encoding="UTF-8"?>
<svg width="50px" height="40px" viewBox="0 0 50 40" version="1.1" xmlns="http://www.w3.org/2000/svg" xmlns:xlink="http://www.w3.org/1999/xlink">
    <!-- Generator: Sketch 49.3 (51167) - http://www.bohemiancoding.com/sketch -->
    <title>Untitled</title>
    <desc>Created with Sketch.</desc>
    <defs></defs>
    <g id="Page-1" stroke="none" stroke-width="1" fill="none" fill-rule="evenodd">
        <g id="swimming-pool">
            <g id="Group" transform="translate(0.000000, 25.000000)">
                <path d="M5.19607843,10.7 C5.98039216,12.1 7.94117647,12.1 8.7254902,10.7 C10.6862745,7.1 15.6862745,7.2 17.5490196,10.7 C18.3333333,12.1 20.2941176,12.1 21.0784314,10.7 C23.0392157,7.1 28.0392157,7.2 29.9019608,10.7 C30.6862745,12.1 32.6470588,12.1 33.4313725,10.7 C35.3921569,7.1 40.3921569,7.2 42.254902,10.7 C43.0392157,12.1 45,12.1 45.7843137,10.7 C46.7647059,9 48.3333333,8.2 50,8.1 L50,3.8 C49.4117647,3.9 48.8235294,4.2 48.5294118,4.8 C46.5686275,8.4 41.5686275,8.3 39.7058824,4.8 C38.9215686,3.4 36.9607843,3.4 36.1764706,4.8 C34.2156863,8.4 29.2156863,8.3 27.3529412,4.8 C26.5686275,3.4 24.6078431,3.4 23.8235294,4.8 C21.8627451,8.4 16.8627451,8.3 15,4.8 C14.2156863,3.4 12.254902,3.4 11.4705882,4.8 C9.50980392,8.4 4.50980392,8.3 2.64705882,4.8 C2.35294118,4.2 1.76470588,3.9 1.17647059,3.8 L1.17647059,8.1 C2.64705882,8.2 4.21568627,9.1 5.19607843,10.7 Z" id="Shape"></path>
                <path d="M2.45098039,4.9 C4.31372549,8.4 9.31372549,8.5 11.2745098,4.9 C12.0588235,3.5 14.0196078,3.5 14.8039216,4.9 C16.6666667,8.4 21.6666667,8.5 23.627451,4.9 C24.4117647,3.5 26.372549,3.5 27.1568627,4.9 C29.0196078,8.4 34.0196078,8.5 35.9803922,4.9 C36.7647059,3.5 38.7254902,3.5 39.5098039,4.9 C41.372549,8.4 46.372549,8.5 48.3333333,4.9 C48.627451,4.3 49.2156863,4 49.8039216,3.9 L49.8039216,0.8 C48.1372549,0.9 46.5686275,1.7 45.5882353,3.4 C44.8039216,4.8 42.8431373,4.8 42.0588235,3.4 C40.1960784,-0.1 35.1960784,-0.2 33.2352941,3.4 C32.4509804,4.8 30.4901961,4.8 29.7058824,3.4 C27.8431373,-0.1 22.8431373,-0.2 20.8823529,3.4 C20.0980392,4.8 18.1372549,4.8 17.3529412,3.4 C15.4901961,-0.1 10.4901961,-0.2 8.52941176,3.4 C7.74509804,4.8 5.78431373,4.8 5,3.4 C4.11764706,1.7 2.45098039,0.9 0.784313725,0.8 L0.784313725,3.9 C1.56862745,3.9 2.15686275,4.3 2.45098039,4.9 Z" id="Shape" fill="#666666" fill-rule="nonzero"></path>
                <path d="M2.45098039,12.3 C4.31372549,15.8 9.31372549,15.9 11.2745098,12.3 C12.0588235,10.9 14.0196078,10.9 14.8039216,12.3 C16.6666667,15.8 21.6666667,15.9 23.627451,12.3 C24.4117647,10.9 26.372549,10.9 27.1568627,12.3 C29.0196078,15.8 34.0196078,15.9 35.9803922,12.3 C36.7647059,10.9 38.7254902,10.9 39.5098039,12.3 C41.372549,15.8 46.372549,15.9 48.3333333,12.3 C48.627451,11.7 49.2156863,11.4 49.8039216,11.3 L49.8039216,8.2 C48.1372549,8.3 46.5686275,9.1 45.5882353,10.8 C44.8039216,12.2 42.8431373,12.2 42.0588235,10.8 C40.1960784,7.3 35.1960784,7.2 33.2352941,10.8 C32.4509804,12.2 30.4901961,12.2 29.7058824,10.8 C27.8431373,7.3 22.8431373,7.2 20.8823529,10.8 C20.0980392,12.2 18.1372549,12.2 17.3529412,10.8 C15.4901961,7.3 10.4901961,7.2 8.52941176,10.8 C7.74509804,12.2 5.78431373,12.2 5,10.8 C4.11764706,9.1 2.45098039,8.3 0.784313725,8.2 L0.784313725,11.3 C1.56862745,11.3 2.15686275,11.7 2.45098039,12.3 Z" id="Shape" fill="#666666" fill-rule="nonzero"></path>
            </g>
            <path d="M39.0196078,0.1 C33.9215686,0.1 29.8039216,4.3 29.8039216,9.5 L15.5882353,9.5 C15.5882353,6.1 18.3333333,3.3 21.7647059,3.3 C22.3529412,3.3 22.9411765,2.8 22.9411765,2.1 L22.9411765,1.3 C22.9411765,0.7 22.4509804,0.1 21.7647059,0.1 C16.6666667,0.1 12.5490196,4.3 12.5490196,9.5 L12.5490196,25.1 L15.5882353,25.1 L15.5882353,22 L29.8039216,22 L29.8039216,25.1 L32.8431373,25.1 L32.8431373,9.5 C32.8431373,6.1 35.5882353,3.3 38.9215686,3.3 C39.5098039,3.3 40.0980392,2.8 40.0980392,2.1 L40.0980392,1.3 C40.0980392,0.6 39.6078431,0.1 39.0196078,0.1 Z M15.5882353,18.9 L15.5882353,12.7 L29.8039216,12.7 L29.8039216,18.9 L15.5882353,18.9 Z" id="Shape" fill="#666666" fill-rule="nonzero"></path>
        </g>
    </g>
</svg>